<svg height="240" viewBox="0 0 48 48" width="240" xmlns="http://www.w3.org/2000/svg"><path d="m40.4 19c-5.3 0-8.2 5-8.4 5s-3.6-5-9-5-6.6 5.1-6.8 5.1-1.7-4.1-6.3-4.1c-3.8 0-4.6 1.6-4.6 1.6s.4-1.3 1-4.6h8.7v-4h-12l-2.5 12h4.3s.9-1.7 3.4-1.7 3.8 1.9 3.8 4-1.5 4.5-3.8 4.5-3.7-2.4-3.7-3.8c-1.9 0-4.5 0-4.5 0 0 1.2 1 7 8.2 7 5.9 0 8-4.1 8-4.6 0 .4 2 4.6 6.8 4.6 5.6 0 8.7-4.6 9-4.6s3.3 4.6 8.4 4.6 7.6-4.3 7.6-8-2.3-8-7.6-8zm3.6 8c0 .9-.4 3.7-3.6 3.7-2.9 0-5.9-3.6-5.9-3.7s3-3.6 5.9-3.6c3.1 0 3.6 2.7 3.6 3.6zm-24 0c0-.9.3-3.6 3.6-3.6 2.9 0 5.9 3.6 6 3.6s-3.1 3.7-6 3.7c-3.2 0-3.6-2.8-3.6-3.7z" fill="#455a64"/></svg>