<svg height="240" viewBox="0 0 48 48" width="240" xmlns="http://www.w3.org/2000/svg" xmlns:xlink="http://www.w3.org/1999/xlink"><linearGradient id="a" gradientUnits="userSpaceOnUse" x1="9.993" x2="40.615" y1="9.993" y2="40.615"><stop offset="0" stop-color="#2aa4f4"/><stop offset="1" stop-color="#007ad9"/></linearGradient><path d="m24 4c-11.046 0-20 8.954-20 20s8.954 20 20 20 20-8.954 20-20-8.954-20-20-20z" fill="url(#a)"/><path d="m26.707 29.301h5.176l.813-5.258h-5.989v-2.874c0-2.184.714-4.121 2.757-4.121h3.283v-4.588c-.577-.078-1.797-.248-4.102-.248-4.814 0-7.636 2.542-7.636 8.334v3.498h-4.949v5.258h4.948v14.452c.98.146 1.973.246 2.992.246.921 0 1.82-.084 2.707-.204z" fill="#fff"/></svg>