<?xml version="1.0" encoding="utf-8"?>
<!-- Generator: Adobe Illustrator 24.1.2, SVG Export Plug-In . SVG Version: 6.00 Build 0)  -->
<svg version="1.1" id="Layer_1" xmlns="http://www.w3.org/2000/svg" xmlns:xlink="http://www.w3.org/1999/xlink" x="0px" y="0px"
	 viewBox="0 0 64.1 19.9" style="enable-background:new 0 0 64.1 19.9;" xml:space="preserve">
<style type="text/css">
	.st0{fill:#231F20;}
</style>
<path class="st0" d="M6.79,5h3.23v3.54H6.79V5z M5.06,3.31v6.94h5.53l1.14-1.13V4.43L10.6,3.31H5.06z M1.72,1.69h9.67l2.22,2.25
	v5.67l-2.22,2.22H5.06v4.78h1.55v1.6H1.72v-1.6H3.2V3.31H1.72V1.69z M0,0v5h1.48v9.92H0v4.98h8.33v-4.98H6.79v-1.4h5.34l3.2-3.28
	V3.31L12.13,0H0z M18.58,1.69h4.8v1.61h-1.46v13.31h1.46v1.6h-4.8v-1.6h1.48V3.31h-1.48V1.69z M16.86,0v5h1.48v9.92h-1.48v4.98h8.25
	v-4.98h-1.46V5h1.46V0H16.86z M38.77,1.69h4.43v1.61h-1.45v14.91h-2.04L31.9,3.93v12.68h1.46v1.6h-4.5v-1.6h1.48V3.31h-1.48V1.69
	h3.87l7.44,13.59V3.31h-1.39V1.69z M37.14,0v4.94h1.51v4.28L33.72,0h-6.6v5h1.49v9.92h-1.49v4.98h7.89v-4.92h-1.6v-4.89l5.32,9.81
	h4.73V5h1.46V0H37.14z M57.3,1.69h4.8v1.61h-1.18l-4.08,4.61l4.27,8.7h1.27v1.6h-5.01v-1.6h1.71l-3.56-7.23l-4,4.51v2.72h1.22v1.6
	h-4.57v-1.6h1.48V3.31h-1.48V1.69h4.57v1.61h-1.22v8.43l7.47-8.43h-1.7V1.69z M55.57,0v4.68h0.34l-2.7,3.09V4.68h1.24V0h-7.99v5
	h1.48v9.92h-1.48v4.98h7.99v-4.86h-1.24v-0.82l1.87-2.11l1.44,2.93h-0.88v4.86h8.45v-4.98h-2l-3.31-6.74L61.6,5h2.22V0H55.57z"/>
</svg>
