<?xml version="1.0" encoding="utf-8"?>
<!-- Generator: Adobe Illustrator 24.1.2, SVG Export Plug-In . SVG Version: 6.00 Build 0)  -->
<svg version="1.1" id="Layer_1" xmlns="http://www.w3.org/2000/svg" xmlns:xlink="http://www.w3.org/1999/xlink" x="0px" y="0px"
	 viewBox="0 0 119.43 119.39" style="enable-background:new 0 0 119.43 119.39;" xml:space="preserve">
<style type="text/css">
	.st0{fill-rule:evenodd;clip-rule:evenodd;}
</style>
<path class="st0" d="M108.52,49.99c-0.52-2.63,0.69-4.1,3-4.56l5.83-1.16l0.42,2.08l-5.78,1.15c-1.36,0.27-2.03,0.95-1.78,2.18
	c0.25,1.22,1.1,1.58,2.48,1.31l5.78-1.15l0.41,2.04l-5.81,1.16C110.73,53.5,109.04,52.61,108.52,49.99z M106.42,41.86l5.99-2.7
	l-0.01-0.02c-0.82,0.21-1.45,0.3-2.17,0.4l-4.62,0.5l-0.77-1.71l3.44-3.12c0.57-0.5,0.9-0.79,1.82-1.43l-0.01-0.02l-6.08,2.74
	l-0.78-1.73l8.77-3.95l1.15,2.55l-5.57,4.86l0.01,0.02l7.27-1.08l1.18,2.61l-8.77,3.95L106.42,41.86z M107.4,85.15l1.66-3.4
	l-3.69-1.8l0.93-1.9l8.64,4.22l-0.93,1.9l-3.35-1.64l-1.66,3.4l3.35,1.64l-0.93,1.9l-8.64-4.22l0.93-1.9L107.4,85.15z M106.12,97.09
	l-9.72-3.24l1.32-1.69l2.13,0.75l2.01-2.59l-1.24-1.9l1.2-1.54l5.53,8.62L106.12,97.09z M102.75,91.67l-1.39,1.79l3.26,1.14
	l0.02-0.02L102.75,91.67z M100.96,102.7l-6.21-3.68l-0.02,0.02l2.87,6.65l-1.49,1.32l-3.95-9.42l1.5-1.33l8.9,5.01L100.96,102.7z
	 M87.48,112.47l-0.91-1.51l3.8-2.29l-1.07-1.77l-2.75,1.65l-0.86-1.44l2.75-1.66l-1.23-2.05l-4,2.4l-0.88-1.47l5.82-3.5l4.96,8.25
	L87.48,112.47z M83.19,6.91l-0.87,1.87l2.91,1.36l-0.71,1.52l-2.91-1.36l-1.01,2.17l4.23,1.97L84.11,16l-6.15-2.86l4.06-8.72
	l5.94,2.76l-0.75,1.6L83.19,6.91z M74.37,111.58c1.78,0,3.63-0.06,4.17,1.88c0.49,1.73-0.57,3.15-2.56,3.71
	c-1.9,0.54-3.29-0.06-4.21-0.87l1.11-1.47c0.71,0.65,1.75,0.93,2.65,0.67c0.86-0.24,1.23-0.75,1.08-1.3
	c-0.21-0.74-0.97-0.81-2.28-0.81c-1.75,0.02-3.62-0.01-4.16-1.92c-0.42-1.49,0.33-3.13,2.91-3.86c2-0.56,3.52,0.04,4.58,1.17
	l-1.28,1.35c-0.8-0.87-1.88-1.17-2.95-0.87c-0.94,0.26-1.52,0.8-1.32,1.52C72.31,111.47,73.06,111.59,74.37,111.58z M76.17,12.45
	l-6.14-1.66l2.52-9.29l2.05,0.55l-2.07,7.63l4.09,1.11L76.17,12.45z M61.18,117.59l2.86-0.27l-0.73-7.82l2.11-0.2l0.73,7.82
	l2.85-0.26l0.16,1.76l-7.82,0.72L61.18,117.59z M64.99,10.05l-2.1-0.18l0.35-4.07L60.42,0l2.18,0.19l1.87,3.92l2.52-3.54l2.15,0.19
	l-3.79,5.23L64.99,10.05z M54.45,115.24l-2.56,3.52l-2.15-0.21l3.84-5.2l0.39-4.06l2.1,0.2l-0.39,4.06l2.77,5.83l-2.17-0.21
	L54.45,115.24z M55.66,9.93l-2.11,0.22l-0.8-7.81l-2.84,0.29l-0.18-1.76l7.81-0.8l0.18,1.76l-2.86,0.29L55.66,9.93z M44.31,117.2
	l2.14-7.61l-4.08-1.15l0.46-1.65l6.12,1.72l-2.6,9.26L44.31,117.2z M45.91,11.91c-2,0.58-3.52,0-4.59-1.13l1.27-1.36
	c0.81,0.86,1.89,1.15,2.95,0.85c0.94-0.27,1.51-0.82,1.3-1.53c-0.2-0.7-0.95-0.81-2.26-0.79c-1.78,0.02-3.63,0.1-4.19-1.84
	c-0.5-1.72,0.54-3.15,2.53-3.73c1.9-0.55,3.29,0.03,4.22,0.83l-1.1,1.48c-0.72-0.64-1.76-0.91-2.65-0.65
	c-0.86,0.25-1.23,0.76-1.07,1.31c0.21,0.74,0.98,0.8,2.29,0.78c1.75-0.04,3.62-0.03,4.18,1.88C49.22,9.51,48.48,11.16,45.91,11.91z
	 M25.88,10.61l5.58-3.43l0.93,1.51l-3.78,2.32l1.08,1.76l2.74-1.68l0.88,1.43l-2.74,1.68l1.25,2.04l3.98-2.44l0.9,1.46l-5.78,3.55
	L25.88,10.61z M25.43,23.45l-8.94-4.93l1.59-1.44l6.25,3.62l0.02-0.02l-2.94-6.62l1.47-1.34l4.03,9.38L25.43,23.45z M21.41,27.59
	l-2.14-0.73l-1.99,2.6l1.26,1.89l-1.18,1.55l-5.62-8.57l1.22-1.6l9.75,3.15L21.41,27.59z M14.48,25.21l-0.02,0.02l1.92,2.89
	l1.37-1.8L14.48,25.21z M15.5,36.45l-3.71-1.77l-1.63,3.42l3.71,1.77l-0.91,1.91l-8.68-4.14l0.91-1.91l3.37,1.61l1.63-3.42
	l-3.37-1.61l0.91-1.91l8.68,4.14L15.5,36.45z M7.73,42.6L9.08,43l-0.97,3.28l-1.35-0.4L7.73,42.6z M10.69,50.28l-0.36,2.09
	l-7.74-1.32l-0.48,2.82l-1.74-0.3l1.32-7.74l1.74,0.3l-0.48,2.83L10.69,50.28z M1.93,56.68l1.13,1.46
	c-0.81,0.51-1.35,1.44-1.34,2.38c0.01,0.9,0.41,1.39,0.98,1.38c0.77-0.01,1.03-0.73,1.37-1.99c0.44-1.69,0.95-3.49,2.94-3.52
	c1.55-0.02,2.94,1.14,2.97,3.82c0.02,2.08-0.95,3.39-2.32,4.12l-0.97-1.59c1.05-0.54,1.62-1.51,1.61-2.62
	c-0.01-0.97-0.38-1.67-1.12-1.67c-0.73,0.01-1.03,0.7-1.37,1.97c-0.46,1.72-0.88,3.52-2.9,3.54C1.12,63.99,0.02,62.59,0,60.53
	C-0.02,58.55,0.91,57.37,1.93,56.68z M11,69.86c0.55,2.62-0.65,4.11-2.96,4.59l-5.82,1.22l-0.43-2.07l5.76-1.21
	c1.36-0.28,2.02-0.97,1.76-2.2c-0.26-1.22-1.11-1.57-2.49-1.29L1.06,70.1l-0.43-2.04l5.8-1.21C8.76,66.37,10.45,67.24,11,69.86z
	 M13.18,77.97l-5.96,2.75l0.01,0.02c0.82-0.22,1.45-0.31,2.17-0.42l4.62-0.54l0.78,1.7l-3.41,3.15c-0.57,0.51-0.89,0.8-1.81,1.45
	l0.01,0.02l6.05-2.8l0.8,1.72l-8.73,4.03l-1.17-2.54l5.52-4.91l-0.01-0.02l-7.26,1.15l-1.2-2.6l8.73-4.03L13.18,77.97z
	 M35.74,112.26l0.89-1.87l-2.9-1.38l0.72-1.51l2.9,1.38l1.03-2.16l-4.21-2.01l0.74-1.55l6.13,2.92l-4.14,8.69l-5.92-2.82l0.76-1.6
	L35.74,112.26z M111.53,77.28l-1.34-0.41l0.99-3.27l1.34,0.41L111.53,77.28z M108.65,69.56l0.38-2.09l7.73,1.39l0.51-2.82l1.74,0.31
	l-1.39,7.73l-1.74-0.31l0.51-2.83L108.65,69.56z M112.23,61.42c0.73,0,1.04-0.69,1.39-1.95c0.48-1.72,0.92-3.51,2.93-3.52
	c1.79,0,2.88,1.4,2.88,3.47c0,1.98-0.94,3.15-1.97,3.83l-1.12-1.47c0.82-0.51,1.36-1.43,1.36-2.37c0-0.9-0.39-1.39-0.97-1.39
	c-0.77,0-1.04,0.72-1.39,1.98c-0.45,1.69-0.98,3.49-2.97,3.49c-1.55,0-2.93-1.17-2.93-3.84c0-2.08,0.98-3.38,2.36-4.1l0.95,1.6
	c-1.05,0.53-1.64,1.5-1.63,2.6C111.13,60.72,111.49,61.42,112.23,61.42z"/>
</svg>
